<svg width="25" height="25" viewBox="0 0 25 25" fill="none" xmlns="http://www.w3.org/2000/svg">
<path d="M10.5 3.02359C10.3262 3.02359 10.1594 3.10229 10.0365 3.24239C9.91359 3.38249 9.84453 3.57251 9.84453 3.77064V12.426L7.68667 9.96519C7.62573 9.89573 7.55338 9.84064 7.47375 9.80305C7.39412 9.76546 7.30878 9.74611 7.22259 9.74611C7.1364 9.74611 7.05105 9.76546 6.97143 9.80305C6.8918 9.84064 6.81945 9.89573 6.7585 9.96519C6.69756 10.0346 6.64921 10.1171 6.61623 10.2079C6.58325 10.2986 6.56627 10.3959 6.56627 10.4941C6.56627 10.5923 6.58325 10.6896 6.61623 10.7803C6.64921 10.8711 6.69756 10.9536 6.7585 11.023L10.0359 14.7583C10.0968 14.8278 10.1692 14.883 10.2488 14.9207C10.3284 14.9584 10.4138 14.9777 10.5 14.9777C10.5862 14.9777 10.6716 14.9584 10.7512 14.9207C10.8309 14.883 10.9032 14.8278 10.9641 14.7583L14.2415 11.023C14.3646 10.8827 14.4338 10.6925 14.4338 10.4941C14.4338 10.2957 14.3646 10.1055 14.2415 9.96519C14.1185 9.82491 13.9515 9.74611 13.7775 9.74611C13.6034 9.74611 13.4364 9.82491 13.3134 9.96519L11.1555 12.426V3.77064C11.1555 3.57251 11.0864 3.38249 10.9635 3.24239C10.8406 3.10229 10.6739 3.02359 10.5 3.02359ZM0.0122391 14.9764C0.0122391 15.7689 -0.105034 16.6871 0.386673 17.2475C0.87838 17.8078 1.93881 17.9646 2.63418 17.9646H18.3659C19.0612 17.9646 20.1215 18.1664 20.6132 17.606C21.1049 17.0456 20.9878 15.7689 20.9878 14.9764V3.02359C20.9878 2.23107 21.1049 0.95435 20.6132 0.393953C20.1215 -0.166444 19.0612 0.0353814 18.3659 0.0353814H2.63418C1.93881 0.0353814 0.878349 -0.166441 0.386642 0.393957C-0.105065 0.954354 0.0122391 2.23107 0.0122391 3.02359V14.9764ZM2.63418 16.4705C2.28649 16.4705 1.95304 16.3131 1.70719 16.0329C1.46133 15.7527 1.32321 15.3727 1.32321 14.9764V3.02359C1.32321 2.62733 1.46133 2.2473 1.70719 1.9671C1.95304 1.6869 2.28649 1.52948 2.63418 1.52948H18.3659C18.7135 1.52948 19.047 1.6869 19.2929 1.9671C19.5387 2.2473 19.6768 2.62733 19.6768 3.02359V14.9764C19.6768 15.3727 19.5387 15.7527 19.2929 16.0329C19.047 16.3131 18.7135 16.4705 18.3659 16.4705H2.63418Z" fill="#FFFCFC"/>
</svg>
