<svg width="16" height="16" viewBox="0 0 16 16" fill="none" xmlns="http://www.w3.org/2000/svg">
<path d="M11.1819 1.15805C10.9235 0.931611 10.5045 0.931611 10.246 1.15805C9.98761 1.38448 9.98761 1.75161 10.246 1.97805C10.4665 2.1712 10.3299 2.53442 10.0368 2.53442L6.82127 2.53441C5.31577 2.5342 4.39707 2.53408 3.63164 2.75199C2.0871 3.19172 0.876165 4.25275 0.374315 5.60607C0.125609 6.27676 0.125754 7.08172 0.125991 8.40084V8.65108C0.125754 9.97021 0.125609 10.7752 0.374315 11.4458C0.487253 11.7504 0.86058 11.9171 1.20817 11.8181C1.55575 11.7192 1.74597 11.3921 1.63303 11.0875C1.45766 10.6146 1.4495 10.0101 1.4495 8.52596C1.4495 7.04187 1.45766 6.43734 1.63303 5.96443C2.00397 4.96414 2.89901 4.1799 4.04062 3.85489C4.58035 3.70123 5.27029 3.69408 6.96406 3.69408H9.93132C10.1584 3.69408 10.2532 3.98446 10.0697 4.11838C9.78898 4.32339 9.75104 4.689 9.98501 4.93501C10.219 5.18102 10.6363 5.21426 10.917 5.00925L12.16 4.10165C12.4991 3.85408 12.685 3.50683 12.7121 3.15311C12.7407 2.78004 12.593 2.39445 12.2634 2.10563L11.1819 1.15805Z" fill="#D7D7D7"/>
<path d="M15.3185 5.60607C15.2055 5.30152 14.8322 5.13485 14.4846 5.2338C14.137 5.33276 13.9468 5.65987 14.0597 5.96443C14.2351 6.43734 14.2433 7.04187 14.2433 8.52596C14.2433 10.0101 14.2351 10.6146 14.0597 11.0875C13.6888 12.0878 12.7938 12.872 11.6522 13.197C11.1124 13.3507 10.4225 13.3578 8.72872 13.3578H6.96406C6.54012 13.3578 6.17908 13.3574 5.86751 13.3543C5.57384 13.3515 5.44644 12.995 5.66733 12.8015C5.92576 12.575 5.92576 12.2079 5.66733 11.9815C5.4089 11.755 4.9899 11.755 4.73148 11.9815L3.65001 12.9291C3.41332 13.1364 3.26939 13.3951 3.2186 13.6635C3.13276 14.1171 3.31327 14.6037 3.75334 14.9251L4.99634 15.8327C5.27711 16.0377 5.69438 16.0044 5.92835 15.7584C6.16232 15.5124 6.12439 15.1468 5.84362 14.9418C5.66129 14.8087 5.76086 14.5144 5.98662 14.5159C6.24527 14.5176 6.52411 14.5175 6.82662 14.5175H8.87151C10.377 14.5177 11.2957 14.5178 12.0611 14.2999C13.6057 13.8602 14.8166 12.7992 15.3185 11.4458C15.5672 10.7752 15.567 9.9702 15.5668 8.65107V8.40085C15.567 7.08172 15.5672 6.27676 15.3185 5.60607Z" fill="#D7D7D7"/>
</svg>
