<svg width="16" height="13" viewBox="0 0 16 13" fill="none" xmlns="http://www.w3.org/2000/svg">
<path d="M15.2201 1.54993C15.2201 1.18395 14.8815 0.887268 14.4638 0.887268C14.0461 0.887268 13.7075 1.18395 13.7075 1.54993V12.1525C13.7075 12.5184 14.0461 12.8151 14.4638 12.8151C14.8815 12.8151 15.2201 12.5184 15.2201 12.1525V1.54993Z" fill="#A7A7A7"/>
<path d="M8.70884 2.65598C7.58878 2.07944 6.70195 1.62295 5.97751 1.32509C5.2496 1.0258 4.57084 0.835714 3.88836 0.899666C2.84807 0.997146 1.90708 1.48325 1.29691 2.23198C0.898374 2.72102 0.744441 3.33358 0.671374 4.04363C0.598621 4.75064 0.598626 5.66258 0.598633 6.81679V6.88559C0.598626 8.0398 0.59862 8.95175 0.671373 9.65875C0.744439 10.3688 0.898372 10.9814 1.29691 11.4704C1.90707 12.2191 2.84806 12.7052 3.88836 12.8027C4.57084 12.8667 5.2496 12.6766 5.97751 12.3773C6.70194 12.0794 7.58876 11.623 8.70881 11.0464L8.77805 11.0108C9.89831 10.4342 10.7851 9.97771 11.4365 9.56741C12.0922 9.15437 12.6118 8.72758 12.8876 8.17533C13.3086 7.33221 13.3086 6.37019 12.8876 5.52707C12.6118 4.97481 12.0922 4.54802 11.4365 4.13499C10.7851 3.72468 9.89832 3.26824 8.77807 2.69161L8.70884 2.65598Z" fill="#A7A7A7"/>
</svg>
