<svg width="51" height="51" viewBox="0 0 51 51" fill="none" xmlns="http://www.w3.org/2000/svg">
<circle cx="25.772" cy="25.3007" r="25" fill="#FA2870"/>
<path d="M28.4575 19.1542C27.0462 18.3826 25.95 17.7833 25.0598 17.3945C24.1662 17.0043 23.3905 16.7839 22.6362 16.859C21.4392 16.9781 20.3494 17.5729 19.6392 18.4984C19.1906 19.0831 19.0039 19.8335 18.9139 20.7624C18.8242 21.6877 18.8242 22.8869 18.8242 24.4292V24.4935C18.8242 26.0358 18.8242 27.235 18.9139 28.1603C19.0039 29.0893 19.1906 29.8397 19.6392 30.4243C20.3494 31.3499 21.4392 31.9446 22.6362 32.0638C23.3905 32.1388 24.1662 31.9184 25.0598 31.5282C25.95 31.1394 27.0462 30.5401 28.4574 29.7686L28.5147 29.7373C29.9259 28.9658 31.0221 28.3665 31.8229 27.8308C32.626 27.2935 33.218 26.7662 33.5284 26.1061C34.0205 25.0593 34.0205 23.8634 33.5284 22.8167C33.218 22.1565 32.626 21.6293 31.8229 21.092C31.0221 20.5562 29.9259 19.9569 28.5147 19.1855L28.4575 19.1542Z" fill="#DCDCDC"/>
</svg>
