<svg width="14" height="13" viewBox="0 0 14 13" fill="none" xmlns="http://www.w3.org/2000/svg">
<path d="M1.58356 1.54993C1.58356 1.18395 1.26612 0.887268 0.874543 0.887268C0.482964 0.887268 0.165527 1.18395 0.165527 1.54993V12.1525C0.165527 12.5184 0.482965 12.8151 0.874543 12.8151C1.26612 12.8151 1.58356 12.5184 1.58356 12.1525L1.58356 1.54993Z" fill="#A7A7A7"/>
<path d="M10.789 0.899664C10.1492 0.835713 9.51288 1.0258 8.83046 1.32509C8.1513 1.62295 7.31991 2.07943 6.26987 2.65595L6.20494 2.69161C5.1547 3.26823 4.32334 3.72468 3.71266 4.13498C3.09792 4.54802 2.61084 4.97481 2.35228 5.52706C1.95755 6.37018 1.95755 7.3322 2.35228 8.17532C2.61084 8.72758 3.09792 9.15437 3.71266 9.5674C4.32334 9.97771 5.15469 10.4342 6.20493 11.0108L6.26989 11.0464C7.31992 11.623 8.15131 12.0794 8.83046 12.3773C9.51287 12.6766 10.1492 12.8667 10.789 12.8027C11.7643 12.7052 12.6465 12.2191 13.2185 11.4704C13.5921 10.9814 13.7365 10.3688 13.805 9.65876C13.8732 8.95175 13.8732 8.03981 13.8732 6.8856V6.81677C13.8732 5.66257 13.8732 4.75063 13.805 4.04363C13.7365 3.33358 13.5921 2.72102 13.2185 2.23198C12.6465 1.48325 11.7643 0.997145 10.789 0.899664Z" fill="#A7A7A7"/>
</svg>
