<svg width="19" height="20" viewBox="0 0 19 20" fill="none" xmlns="http://www.w3.org/2000/svg">
<g clip-path="url(#clip0_510_1566)">
<path d="M13.9221 2.74823C12.574 1.92667 11.0343 1.44507 9.36255 1.44507L9.38848 2.74823H13.9221Z" fill="#ED4C5C"/>
<path d="M9.41436 4.05145H15.5347C15.0435 3.56985 14.4961 3.11657 13.922 2.74829H9.38843L9.41436 4.05145Z" fill="white"/>
<path d="M9.44024 5.35455H16.609C16.2878 4.87295 15.9393 4.448 15.563 4.05139H9.41431L9.44024 5.35455Z" fill="#ED4C5C"/>
<path d="M9.46612 6.65777H17.3149C17.1076 6.2045 16.8719 5.75123 16.609 5.35461H9.44019L9.46612 6.65777Z" fill="white"/>
<path d="M9.492 7.96099H17.7658C17.6435 7.50772 17.4934 7.08278 17.3149 6.65784H9.46606L9.492 7.96099Z" fill="#ED4C5C"/>
<path d="M9.51861 9.29242H17.9908C17.9535 8.83914 17.86 8.4142 17.7665 7.98926H9.49268L9.51861 9.29242Z" fill="white"/>
<path d="M17.9907 9.29236H9.51848L9.53144 9.94394H1.03091C1.03542 10.1706 1.03937 10.3689 1.07221 10.5955H18.0166C18.0404 10.3689 18.0365 10.1706 18.032 9.94394C18.0275 9.7173 18.023 9.49066 17.9907 9.29236Z" fill="#ED4C5C"/>
<path d="M1.29654 11.8987H17.8442C17.9491 11.4738 17.9973 11.0489 18.0167 10.5956H1.07227C1.10906 11.0205 1.17475 11.4738 1.29654 11.8987Z" fill="white"/>
<path d="M1.74747 13.202H17.4451C17.6067 12.777 17.7399 12.3521 17.8442 11.8988H1.29651C1.41887 12.3521 1.569 12.777 1.74747 13.202Z" fill="#ED4C5C"/>
<path d="M2.45329 14.5049H16.7909C17.0374 14.08 17.2556 13.6551 17.445 13.2018H1.74731C1.95468 13.6551 2.18982 14.08 2.45329 14.5049Z" fill="white"/>
<path d="M3.49937 15.8082H15.7968C16.1573 15.4115 16.5166 14.9583 16.7909 14.505H2.45337C2.7463 14.9866 3.12312 15.4115 3.49937 15.8082Z" fill="#ED4C5C"/>
<path d="M5.11221 17.1114H14.2361C14.8238 16.7431 15.3248 16.2898 15.797 15.8082H3.49951C3.99136 16.3182 4.53818 16.7431 5.11221 17.1114Z" fill="white"/>
<path d="M9.70051 18.4429C11.3723 18.4429 12.9211 17.9613 14.236 17.1115H5.11206C6.46072 17.9613 8.02874 18.4429 9.70051 18.4429Z" fill="#ED4C5C"/>
<path d="M4.85466 2.74835C4.26696 3.11663 3.73761 3.5699 3.26549 4.0515C2.8767 4.44812 2.54569 4.90139 2.27136 5.35466C2.0248 5.7796 1.77824 6.20455 1.61725 6.65782C1.4557 7.08276 1.32248 7.5077 1.21816 7.96098C1.11327 8.38592 1.06506 8.81086 1.04574 9.26413C1.02192 9.49077 1.02643 9.71741 1.03094 9.94404H9.53147L9.36235 1.44519C7.69058 1.44519 6.17007 1.92679 4.85466 2.74835Z" fill="#428BC1"/>
<path d="M7.38467 1.72839L7.5348 2.15334H7.95982L7.62544 2.43663L7.74724 2.86157L7.40214 2.60661L7.06719 2.86157L7.17208 2.43663L6.82642 2.15334H7.25145L7.38467 1.72839ZM8.5519 3.42816L8.70203 3.85311H9.12705L8.79267 4.1364L8.91447 4.56134L8.56937 4.30638L8.23442 4.56134L8.33931 4.1364L7.99365 3.85311H8.41868L8.5519 3.42816ZM6.28509 3.42816L6.43522 3.85311H6.86024L6.52586 4.1364L6.64766 4.56134L6.30256 4.30638L5.96761 4.56134L6.0725 4.1364L5.72684 3.85311H6.15187L6.28509 3.42816ZM7.45232 5.12793L7.60245 5.55288H8.02747L7.69309 5.83617L7.81489 6.26111L7.46979 6.00615L7.13484 6.26111L7.23973 5.83617L6.89407 5.55288H7.3191L7.45232 5.12793ZM5.18551 5.12793L5.33564 5.55288H5.76066L5.42628 5.83617L5.54808 6.26111L5.20298 6.00615L4.86803 6.26111L4.97292 5.83617L4.62726 5.55288H5.05229L5.18551 5.12793ZM2.9187 5.12793L3.06883 5.55288H3.49386L3.15947 5.83617L3.28127 6.26111L2.93617 6.00615L2.60123 6.26111L2.70611 5.83617L2.36045 5.55288H2.78548L2.9187 5.12793ZM8.61954 6.8277L8.76968 7.25265H9.1947L8.86032 7.53594L8.98212 7.96088L8.63702 7.70592L8.30207 7.96088L8.40696 7.53594L8.0613 7.25265H8.48632L8.61954 6.8277ZM6.35274 6.8277L6.50287 7.25265H6.92789L6.59351 7.53594L6.71531 7.96088L6.37021 7.70592L6.03526 7.96088L6.14015 7.53594L5.79449 7.25265H6.21952L6.35274 6.8277ZM4.08593 6.8277L4.23606 7.25265H4.66108L4.3267 7.53594L4.4485 7.96088L4.1034 7.70592L3.76845 7.96088L3.87334 7.53594L3.52768 7.25265H3.95271L4.08593 6.8277ZM7.51996 8.52747L7.6701 8.95242H8.09512L7.76074 9.23571L7.88253 9.66065L7.53744 9.40569L7.20249 9.66065L7.30738 9.23571L6.96172 8.95242H7.38674L7.51996 8.52747ZM5.25316 8.52747L5.40329 8.95242H5.82831L5.49393 9.23571L5.61573 9.66065L5.27063 9.40569L4.93568 9.66065L5.04057 9.23571L4.69491 8.95242H5.11994L5.25316 8.52747ZM2.98635 8.52747L3.13648 8.95242H3.5615L3.22712 9.23571L3.34892 9.66065L3.00382 9.40569L2.66887 9.66065L2.77376 9.23571L2.4281 8.95242H2.85313L2.98635 8.52747ZM3.70081 4.56134L4.03575 4.30638L4.38085 4.56134L4.23072 4.1364L4.5651 3.85311H4.14007L4.01828 3.42816L3.88506 3.85311H3.48837L3.83346 4.10807L3.70081 4.56134ZM1.50165 7.96088L1.83659 7.70592L2.18169 7.96088L2.03156 7.53594L2.36594 7.25265H1.96925L1.81912 6.8277L1.6859 7.25265H1.40255C1.40311 7.28098 1.37534 7.30931 1.3759 7.33764L1.60597 7.50761L1.50165 7.96088Z" fill="white"/>
</g>
<defs>
<clipPath id="clip0_510_1566">
<rect width="18.1345" height="18.1345" fill="white" transform="matrix(1 0 0.0198954 0.999802 0.283691 0.87854)"/>
</clipPath>
</defs>
</svg>
