<svg width="13" height="17" viewBox="0 0 13 17" fill="none" xmlns="http://www.w3.org/2000/svg">
<path d="M10.8333 17C10.2315 17 9.71991 16.7521 9.29861 16.2562C8.87732 15.7604 8.66667 15.1583 8.66667 14.45C8.66667 14.3508 8.67269 14.248 8.68472 14.1414C8.7044 13.9682 8.64195 13.7886 8.49805 13.6902L4.35114 10.8518C3.94483 10.5737 3.40582 10.6576 2.96111 10.8689C2.70833 10.9896 2.44352 11.05 2.16667 11.05C1.56481 11.05 1.05324 10.8021 0.631945 10.3063C0.210648 9.81042 0 9.20833 0 8.5C0 7.79167 0.210648 7.18958 0.631945 6.69375C1.05324 6.19792 1.56481 5.95 2.16667 5.95C2.44352 5.95 2.70833 6.01007 2.96111 6.1302C3.40567 6.34247 3.94499 6.42619 4.35152 6.14794L8.49805 3.30984C8.64195 3.21135 8.7044 3.03181 8.68472 2.85855C8.67269 2.75202 8.66667 2.64917 8.66667 2.55C8.66667 1.84167 8.87732 1.23958 9.29861 0.74375C9.71991 0.247917 10.2315 0 10.8333 0C11.4352 0 11.9468 0.247917 12.3681 0.74375C12.7894 1.23958 13 1.84167 13 2.55C13 3.25833 12.7894 3.86042 12.3681 4.35625C11.9468 4.85208 11.4352 5.1 10.8333 5.1C10.5565 5.1 10.2917 5.03965 10.0389 4.91895C9.59418 4.7076 9.05517 4.6237 8.64886 4.9018L4.50195 7.74016C4.35805 7.83865 4.2956 8.01819 4.31528 8.19145C4.32732 8.29798 4.33333 8.40083 4.33333 8.5C4.33333 8.59917 4.32732 8.70173 4.31528 8.8077C4.29564 8.98147 4.35833 9.16154 4.50264 9.26031L8.64848 12.0979C9.05501 12.3762 9.59433 12.2925 10.0389 12.0802C10.2917 11.9601 10.5565 11.9 10.8333 11.9C11.4352 11.9 11.9468 12.1479 12.3681 12.6437C12.7894 13.1396 13 13.7417 13 14.45C13 15.1583 12.7894 15.7604 12.3681 16.2562C11.9468 16.7521 11.4352 17 10.8333 17ZM10.8333 3.4C11.038 3.4 11.2094 3.31868 11.3476 3.15605C11.4862 2.99285 11.5556 2.79083 11.5556 2.55C11.5556 2.30917 11.4862 2.10715 11.3476 1.94395C11.2094 1.78132 11.038 1.7 10.8333 1.7C10.6287 1.7 10.4573 1.78132 10.3191 1.94395C10.1804 2.10715 10.1111 2.30917 10.1111 2.55C10.1111 2.79083 10.1804 2.99285 10.3191 3.15605C10.4573 3.31868 10.6287 3.4 10.8333 3.4ZM2.16667 9.35C2.3713 9.35 2.54294 9.2684 2.68161 9.1052C2.8198 8.94257 2.88889 8.74083 2.88889 8.5C2.88889 8.25917 2.8198 8.05715 2.68161 7.89395C2.54294 7.73132 2.3713 7.65 2.16667 7.65C1.96204 7.65 1.79039 7.73132 1.65172 7.89395C1.51354 8.05715 1.44444 8.25917 1.44444 8.5C1.44444 8.74083 1.51354 8.94257 1.65172 9.1052C1.79039 9.2684 1.96204 9.35 2.16667 9.35ZM10.8333 15.3C11.038 15.3 11.2094 15.2184 11.3476 15.0552C11.4862 14.8926 11.5556 14.6908 11.5556 14.45C11.5556 14.2092 11.4862 14.0074 11.3476 13.8448C11.2094 13.6816 11.038 13.6 10.8333 13.6C10.6287 13.6 10.4573 13.6816 10.3191 13.8448C10.1804 14.0074 10.1111 14.2092 10.1111 14.45C10.1111 14.6908 10.1804 14.8926 10.3191 15.0552C10.4573 15.2184 10.6287 15.3 10.8333 15.3Z" fill="#ECEBEB"/>
</svg>
