<svg width="16" height="15" viewBox="0 0 16 15" fill="none" xmlns="http://www.w3.org/2000/svg">
<path d="M13.9731 0.931119C13.6962 0.704682 13.2473 0.704682 12.9704 0.931119C12.6935 1.15756 12.6935 1.52468 12.9704 1.75112C13.2079 1.94532 13.078 2.34814 12.7756 2.3992C11.3893 2.63318 10.1528 3.30411 9.35156 4.287L4.59517 10.1216C3.85002 11.0357 2.59555 11.5847 1.2522 11.5847H0.945831C0.554253 11.5847 0.236816 11.8443 0.236816 12.1645C0.236816 12.4848 0.554253 12.7444 0.945831 12.7444H1.2522C3.06967 12.7444 4.7669 12.0015 5.77505 10.7649L10.5314 4.93026C11.047 4.29778 11.8065 3.84007 12.6705 3.61809C12.8498 3.57202 12.9345 3.7872 12.7815 3.89145C12.4807 4.09646 12.4401 4.46208 12.6907 4.70808C12.9414 4.95409 13.3885 4.98733 13.6893 4.78232L15.0211 3.87472C15.3844 3.62716 15.5836 3.2799 15.6126 2.92618C15.6433 2.55311 15.485 2.16752 15.1318 1.87871L13.9731 0.931119Z" fill="#C3C1C3"/>
<path d="M0.945831 2.30749C0.554253 2.30749 0.236816 2.56709 0.236816 2.88732C0.236816 3.20755 0.554253 3.46715 0.945831 3.46715H1.2522C2.59555 3.46715 3.85002 4.01619 4.59517 4.93026C4.81238 5.19671 5.25259 5.26871 5.5784 5.09107C5.90421 4.91344 5.99225 4.55345 5.77505 4.287C4.76689 3.05031 3.06967 2.30749 1.2522 2.30749H0.945831Z" fill="#C3C1C3"/>
<path d="M10.5314 10.1216C10.3142 9.85515 9.87402 9.78315 9.54821 9.96079C9.22239 10.1384 9.13435 10.4984 9.35156 10.7649C10.1291 11.7186 11.3164 12.3786 12.6527 12.6307C12.9045 12.6782 12.9932 13.0244 12.7815 13.1687C12.4807 13.3737 12.4401 13.7393 12.6907 13.9853C12.9414 14.2313 13.3885 14.2645 13.6893 14.0595L15.0211 13.1519C15.3844 12.9044 15.5836 12.5571 15.6126 12.2034C15.6433 11.8303 15.485 11.4447 15.1318 11.1559L13.9731 10.2083C13.6962 9.9819 13.2473 9.9819 12.9704 10.2083C12.6935 10.4348 12.6935 10.8019 12.9704 11.0283C13.1851 11.2039 13.0531 11.5236 12.783 11.4612C11.8725 11.251 11.0693 10.7814 10.5314 10.1216Z" fill="#C3C1C3"/>
</svg>
